<?xml version="1.0" encoding="UTF-8" standalone="no"?>
<!-- Created with Inkscape (http://www.inkscape.org/) -->

<svg
   xmlns:dc="http://purl.org/dc/elements/1.1/"
   xmlns:cc="http://creativecommons.org/ns#"
   xmlns:rdf="http://www.w3.org/1999/02/22-rdf-syntax-ns#"
   xmlns:svg="http://www.w3.org/2000/svg"
   xmlns="http://www.w3.org/2000/svg"
   xmlns:xlink="http://www.w3.org/1999/xlink"
   xmlns:sodipodi="http://sodipodi.sourceforge.net/DTD/sodipodi-0.dtd"
   xmlns:inkscape="http://www.inkscape.org/namespaces/inkscape"
   width="162.29126mm"
   height="183.44444mm"
   viewBox="0 0 162.29126 183.44444"
   version="1.1"
   id="svg8"
   inkscape:version="0.92.3 (2405546, 2018-03-11)"
   sodipodi:docname="logo-dummy_v3.svg">
  <defs
     id="defs2">
    <clipPath
       clipPathUnits="userSpaceOnUse"
       id="clipPath973">
      <use
         x="0"
         y="0"
         xlink:href="#g969"
         id="use975"
         width="100%"
         height="100%" />
    </clipPath>
  </defs>
  <sodipodi:namedview
     id="base"
     pagecolor="#ffffff"
     bordercolor="#666666"
     borderopacity="1.0"
     inkscape:pageopacity="0.0"
     inkscape:pageshadow="2"
     inkscape:zoom="0.49497475"
     inkscape:cx="-417.77623"
     inkscape:cy="252.88922"
     inkscape:document-units="mm"
     inkscape:current-layer="layer2"
     showgrid="false"
     inkscape:window-width="1920"
     inkscape:window-height="1001"
     inkscape:window-x="1591"
     inkscape:window-y="-9"
     inkscape:window-maximized="1" />
  <metadata
     id="metadata5">
    <rdf:RDF>
      <cc:Work
         rdf:about="">
        <dc:format>image/svg+xml</dc:format>
        <dc:type
           rdf:resource="http://purl.org/dc/dcmitype/StillImage" />
        <dc:title />
      </cc:Work>
    </rdf:RDF>
  </metadata>
  <g
     inkscape:groupmode="layer"
     id="layer2"
     inkscape:label="Layer 1"
     style="display:inline"
     transform="translate(-52.813923,-66.831069)">
    <g
       transform="translate(6.9490093,-0.54528)"
       style="display:inline"
       id="g971"
       clip-path="url(#clipPath973)">
      <g
         inkscape:label="Clip"
         id="g969">
        <path
           id="path890-0-46"
           style="display:inline;fill:#000000;stroke-width:0.35277778"
           d="m 171.7827,108.68621 c 1.09564,-1.02348 1.09564,-1.02348 1.09564,-13.015472 0,-11.99199 0,-11.99199 -1.02348,-13.08763 -1.02348,-1.09564 -1.02348,-1.09564 -5.95991,-1.09564 -4.93644,0 -4.93644,0 -6.03208,1.02348 -1.09564,1.02348 -1.09564,1.02348 -1.09564,13.015471 0,11.991991 0,11.991991 1.02348,13.087631 1.02349,1.09564 1.02349,1.09564 5.95992,1.09564 4.93643,0 4.93643,0 6.03207,-1.02348 z m -21.16669,0 c 1.09564,-1.02348 1.09564,-1.02348 1.09564,-13.015474 0,-11.99199 0,-11.99199 -1.02348,-13.08763 -1.02348,-1.09564 -1.02348,-1.09564 -5.95991,-1.09564 -4.93644,0 -4.93644,0 -6.03208,1.02348 -1.09564,1.02348 -1.09564,1.02348 -1.09564,13.015471 0,11.991993 0,11.991993 1.02348,13.087633 1.02349,1.09564 1.02349,1.09564 5.95992,1.09564 4.93643,0 4.93643,0 6.03207,-1.02348 z m -21.16664,0 c 1.09564,-1.02348 1.09564,-1.02348 1.09564,-13.01547 0,-11.99199 0,-11.99199 -1.02348,-13.08763 -1.02348,-1.09564 -1.02348,-1.09564 -5.95991,-1.09564 -4.93644,0 -4.93644,0 -6.03208,1.02348 -1.09564,1.02348 -1.09564,1.02348 -1.09564,13.015472 0,11.991988 0,11.991988 1.02348,13.087628 1.02349,1.09564 1.02349,1.09564 5.95992,1.09564 4.93643,0 4.93643,0 6.03207,-1.02348 z m -21.16667,0 c 1.09564,-1.02348 1.09564,-1.02348 1.09564,-13.015471 0,-11.99199 0,-11.99199 -1.02348,-13.08763 -1.02348,-1.09564 -1.02348,-1.09564 -5.95991,-1.09564 -4.93644,0 -4.93644,0 -6.03208,1.02348 -1.09564,1.02348 -1.09564,1.02348 -1.09564,13.015471 0,11.99199 0,11.99199 1.02348,13.08763 1.02349,1.09564 1.02349,1.09564 5.95992,1.09564 4.93643,0 4.93643,0 6.03207,-1.02348 z m 85.76231,61.52486 v -66.4986 h -3.5278 -3.52777 v 59.44304 59.44306 h -60.68912 c -65.961676,0 -61.988886,-0.11575 -64.147746,1.86892 -1.97951,1.81978 -2.69779,5.3408 -1.61713,7.92718 0.72837,1.74323 1.80315,2.86005 3.51094,3.64824 1.35536,0.62554 3.9513,0.65158 65.704876,0.65902 l 64.29375,0.008 z M 62.518054,250.27981 c -3.65372,-0.79307 -7.30502,-2.81842 -10.14582,-5.62781 -2.81025,-2.77919 -4.02714,-4.67522 -5.3854,-8.39097 l -0.93212,-2.54996 -0.0949,-61.90468 -0.0949,-61.90468 21.26051,-21.262682 21.2605,-21.262679 H 137.6877 186.9895 V 81.48747 95.598581 h 10.58333 10.58334 v 77.611099 77.61111 l -71.70209,-0.0281 c -59.427336,-0.0232 -72.084506,-0.11105 -73.935966,-0.51293 z"
           inkscape:connector-curvature="0" />
      </g>
    </g>
  </g>
</svg>
