<svg width="162.29mm" height="183.44mm" version="1.1" viewBox="0 0 162.29 183.44" xmlns="http://www.w3.org/2000/svg" xmlns:xlink="http://www.w3.org/1999/xlink">
 <g transform="translate(-45.865 -67.376)">
  <g id="a">
   <path d="m171.78 108.69c1.0956-1.0235 1.0956-1.0235 1.0956-13.015 0-11.992 0-11.992-1.0235-13.088s-1.0235-1.0956-5.9599-1.0956c-4.9364 0-4.9364 0-6.0321 1.0235s-1.0956 1.0235-1.0956 13.015 0 11.992 1.0235 13.088c1.0235 1.0956 1.0235 1.0956 5.9599 1.0956s4.9364 0 6.0321-1.0235zm-21.167 0c1.0956-1.0235 1.0956-1.0235 1.0956-13.015 0-11.992 0-11.992-1.0235-13.088s-1.0235-1.0956-5.9599-1.0956c-4.9364 0-4.9364 0-6.0321 1.0235s-1.0956 1.0235-1.0956 13.015c0 11.992 0 11.992 1.0235 13.088 1.0235 1.0956 1.0235 1.0956 5.9599 1.0956s4.9364 0 6.0321-1.0235zm-21.167 0c1.0956-1.0235 1.0956-1.0235 1.0956-13.015s0-11.992-1.0235-13.088-1.0235-1.0956-5.9599-1.0956c-4.9364 0-4.9364 0-6.0321 1.0235s-1.0956 1.0235-1.0956 13.015c0 11.992 0 11.992 1.0235 13.088 1.0235 1.0956 1.0235 1.0956 5.9599 1.0956s4.9364 0 6.0321-1.0235zm-21.167 0c1.0956-1.0235 1.0956-1.0235 1.0956-13.015 0-11.992 0-11.992-1.0235-13.088s-1.0235-1.0956-5.9599-1.0956c-4.9364 0-4.9364 0-6.0321 1.0235s-1.0956 1.0235-1.0956 13.015c0 11.992 0 11.992 1.0235 13.088 1.0235 1.0956 1.0235 1.0956 5.9599 1.0956s4.9364 0 6.0321-1.0235zm85.762 61.525v-66.499h-7.0556v118.89h-60.689c-65.962 0-61.989-0.11575-64.148 1.8689-1.9795 1.8198-2.6978 5.3408-1.6171 7.9272 0.72837 1.7432 1.8032 2.86 3.5109 3.6482 1.3554 0.62554 3.9513 0.65158 65.705 0.65902l64.294 8e-3zm-131.53 80.069c-3.6537-0.79307-7.305-2.8184-10.146-5.6278-2.8102-2.7792-4.0271-4.6752-5.3854-8.391l-0.93212-2.55-0.1898-123.81 42.521-42.525h98.604v28.222h21.167v155.22l-71.702-0.0281c-59.427-0.0232-72.085-0.11105-73.936-0.51293z" style="stroke-width:.35278"/>
  </g>
 </g>
</svg>
