<svg width="460" height="520" viewBox="0 0 460 520" xmlns="http://www.w3.org/2000/svg">
<path fill-rule="evenodd" clip-rule="evenodd" d="M0 124.142C0 121.49 1.05357 118.946 2.92894 117.071L117.071 2.92893C118.946 1.05357 121.49 0 124.142 0H390C395.523 0 400 4.47715 400 10V80H450C455.523 80 460 84.4771 460 90V510C460 515.523 455.523 520 450 520H60C26.8629 520 0 493.137 0 460V124.142ZM400 108C400 105.239 402.239 103 405 103H415C417.761 103 420 105.239 420 108V470C420 475.523 415.523 480 410 480H60C48.9543 480 40 471.046 40 460C40 448.954 48.9543 440 60 440H390C395.523 440 400 435.523 400 430V108ZM140 50C140 44.4772 144.477 40 150 40H170C175.523 40 180 44.4772 180 50V110C180 115.523 175.523 120 170 120H150C144.477 120 140 115.523 140 110V50ZM210 40C204.477 40 200 44.4772 200 50V110C200 115.523 204.477 120 210 120H230C235.523 120 240 115.523 240 110V50C240 44.4772 235.523 40 230 40H210ZM260 50C260 44.4772 264.477 40 270 40H290C295.523 40 300 44.4772 300 50V110C300 115.523 295.523 120 290 120H270C264.477 120 260 115.523 260 110V50ZM320 50C320 44.4772 324.477 40 330 40H350C355.523 40 360 44.4772 360 50V110C360 115.523 355.523 120 350 120H330C324.477 120 320 115.523 320 110V50Z" fill="#f6d55c"/>
</svg>