<svg xmlns="http://www.w3.org/2000/svg" fill="#f6d55c" viewBox="0 0 24 24" style="width: 100%; height: 100%; transform: translate3d(0px, 0px, 0px);" preserveAspectRatio="xMidYMid meet"><defs><clipPath id="__lottie_element_19"><rect width="24" height="24" x="0" y="0"></rect></clipPath></defs><g><g style="display: block;" transform="matrix(0.9999983310699463,-0.0018156993901357055,0.0018156993901357055,0.9999983310699463,-0.009058952331542969,0.021796703338623047)" opacity="1"><g opacity="1" transform="matrix(1,0,0,1,12,3.5)"><path fill-opacity="1" d=" M1.5,1.5 C1.5,1.5 -1.5,1.5 -1.5,1.5 C-1.5,1.5 -1.5,0 -1.5,0 C-1.5,-0.828000009059906 -0.828000009059906,-1.5 0,-1.5 C0.828000009059906,-1.5 1.5,-0.828000009059906 1.5,0 C1.5,0 1.5,1.5 1.5,1.5z"></path></g><g opacity="1" transform="matrix(1,0,0,1,12,11.5)"><path fill-opacity="1" d=" M7.5320000648498535,5.675000190734863 C7.5320000648498535,5.675000190734863 7.5370001792907715,5.6570000648498535 7.5370001792907715,5.6570000648498535 C7.5370001792907715,5.6570000648498535 6,4.5 6,4.5 C6,4.5 6,-1.5 6,-1.5 C6,-4.814000129699707 3.313999891281128,-7.5 0,-7.5 C-3.313999891281128,-7.5 -6,-4.814000129699707 -6,-1.5 C-6,-1.5 -6,4.5 -6,4.5 C-6,4.5 -7.5370001792907715,5.6570000648498535 -7.5370001792907715,5.6570000648498535 C-7.5370001792907715,5.6570000648498535 -7.5320000648498535,5.675000190734863 -7.5320000648498535,5.675000190734863 C-7.807000160217285,5.853000164031982 -8,6.1479997634887695 -8,6.5 C-8,7.052999973297119 -7.552000045776367,7.5 -7,7.5 C-7,7.5 0,7.5 0,7.5 C0,7.5 7,7.5 7,7.5 C7.552999973297119,7.5 8,7.052999973297119 8,6.5 C8,6.1479997634887695 7.806000232696533,5.853000164031982 7.5320000648498535,5.675000190734863z"></path></g></g><g style="display: block;" transform="matrix(0.9999983310699463,-0.0018156993901357055,0.0018156993901357055,0.9999983310699463,-0.009058952331542969,0.021796703338623047)" opacity="1"><g opacity="1" transform="matrix(1,0,0,1,12.250753402709961,21.012781143188477)"><path fill-opacity="1" d=" M0,1 C1.1039999723434448,1 2,0.10400000214576721 2,-1 C2,-1 -2,-1 -2,-1 C-2,0.10400000214576721 -1.1039999723434448,1 0,1z"></path></g></g></g></svg>