<svg fill="#f6d55c" xmlns="http://www.w3.org/2000/svg" viewBox="0 0 100 100" x="0px" y="0px"><title>Settings</title><path d="M98.84,39.34a3.5,3.5,0,0,0-3.1-2.71L87.6,35.47a6.88,6.88,0,0,0-.78-1.74l5-6.59a3.79,3.79,0,0,0,.19-4.26c0-.19-2.13-3.49-6.78-8.14s-7.95-6.78-8.14-6.78a3.79,3.79,0,0,0-4.26.19l-6.59,5a6.88,6.88,0,0,0-1.74-.78L63.37,4.26a3.5,3.5,0,0,0-2.71-3.1A44.52,44.52,0,0,0,50,0,44.52,44.52,0,0,0,39.34,1.16a3.5,3.5,0,0,0-2.71,3.1L35.47,12.4a6.88,6.88,0,0,0-1.74.78l-6.59-5a3.79,3.79,0,0,0-4.26-.19c-0.19,0-3.49,2.13-8.14,6.78s-6.78,7.95-6.78,8.14a3.79,3.79,0,0,0,.19,4.26l5,6.59a8.1,8.1,0,0,0-.78,1.94l-8.14,1a3.5,3.5,0,0,0-3.1,2.71A44.52,44.52,0,0,0,0,50,44.52,44.52,0,0,0,1.16,60.66a3.5,3.5,0,0,0,3.1,2.71l8.14,1.16a6.88,6.88,0,0,0,.78,1.74l-5,6.59a3.79,3.79,0,0,0-.19,4.26c0,0.19,2.13,3.49,6.78,8.14s7.95,6.78,8.14,6.78a3.79,3.79,0,0,0,4.26-.19l6.59-5a8.1,8.1,0,0,0,1.94.78l1,8.14a3.5,3.5,0,0,0,2.71,3.1A44.52,44.52,0,0,0,50,100a44.52,44.52,0,0,0,10.66-1.16,3.5,3.5,0,0,0,2.71-3.1l1.16-8.14a6.88,6.88,0,0,0,1.74-.78l6.59,5a3.79,3.79,0,0,0,4.26.19c0.19,0,3.49-2.13,8.14-6.78s6.78-7.95,6.78-8.14a3.79,3.79,0,0,0-.19-4.26l-5-6.59a6.88,6.88,0,0,0,.78-1.74l8.14-1.16a3.5,3.5,0,0,0,3.1-2.71A44.52,44.52,0,0,0,100,50,44.52,44.52,0,0,0,98.84,39.34ZM50,66.28A16.28,16.28,0,1,1,66.28,50,16.13,16.13,0,0,1,50,66.28Z"></path></svg>