<?xml version="1.0" encoding="UTF-8" standalone="no"?>
<svg
   xmlns:dc="http://purl.org/dc/elements/1.1/"
   xmlns:cc="http://creativecommons.org/ns#"
   xmlns:rdf="http://www.w3.org/1999/02/22-rdf-syntax-ns#"
   xmlns:svg="http://www.w3.org/2000/svg"
   xmlns="http://www.w3.org/2000/svg"
   xmlns:sodipodi="http://sodipodi.sourceforge.net/DTD/sodipodi-0.dtd"
   xmlns:inkscape="http://www.inkscape.org/namespaces/inkscape"
   width="162.29201mm"
   height="183.442mm"
   version="1.1"
   viewBox="0 0 162.29202 183.442"
   id="svg7"
   sodipodi:docname="nanite-icon.svg"
   inkscape:version="0.92.3 (2405546, 2018-03-11)">
  <metadata
     id="metadata13">
    <rdf:RDF>
      <cc:Work
         rdf:about="">
        <dc:format>image/svg+xml</dc:format>
        <dc:type
           rdf:resource="http://purl.org/dc/dcmitype/StillImage" />
      </cc:Work>
    </rdf:RDF>
  </metadata>
  <defs
     id="defs11" />
  <sodipodi:namedview
     pagecolor="#ffffff"
     bordercolor="#666666"
     borderopacity="1"
     objecttolerance="10"
     gridtolerance="10"
     guidetolerance="10"
     inkscape:pageopacity="0"
     inkscape:pageshadow="2"
     inkscape:window-width="1920"
     inkscape:window-height="1001"
     id="namedview9"
     showgrid="false"
     inkscape:zoom="0.34039286"
     inkscape:cx="-490.05851"
     inkscape:cy="475.92822"
     inkscape:window-x="1591"
     inkscape:window-y="-9"
     inkscape:window-maximized="1"
     inkscape:current-layer="svg7" />
  <g
     transform="translate(-256.67131,-101.57668)"
     id="g5" />
  <g
     transform="translate(-45.85768,-67.3802)"
     id="a"
     style="fill:#f6d55c;fill-opacity:1">
    <path
       d="m 171.78,108.69 c 1.0956,-1.0235 1.0956,-1.0235 1.0956,-13.015 0,-11.992 0,-11.992 -1.0235,-13.088 -1.0235,-1.096 -1.0235,-1.0956 -5.9599,-1.0956 -4.9364,0 -4.9364,0 -6.0321,1.0235 -1.0957,1.0235 -1.0956,1.0235 -1.0956,13.015 0,11.9915 0,11.992 1.0235,13.088 1.0235,1.0956 1.0235,1.0956 5.9599,1.0956 4.9364,0 4.9364,0 6.0321,-1.0235 z m -21.167,0 c 1.0956,-1.0235 1.0956,-1.0235 1.0956,-13.015 0,-11.992 0,-11.992 -1.0235,-13.088 -1.0235,-1.096 -1.0235,-1.0956 -5.9599,-1.0956 -4.9364,0 -4.9364,0 -6.0321,1.0235 -1.0957,1.0235 -1.0956,1.0235 -1.0956,13.015 0,11.992 0,11.992 1.0235,13.088 1.0235,1.0956 1.0235,1.0956 5.9599,1.0956 4.9364,0 4.9364,0 6.0321,-1.0235 z m -21.167,0 c 1.0956,-1.0235 1.0956,-1.0235 1.0956,-13.015 0,-11.9915 0,-11.992 -1.0235,-13.088 -1.0235,-1.096 -1.0235,-1.0956 -5.9599,-1.0956 -4.9364,0 -4.9364,0 -6.0321,1.0235 -1.0957,1.0235 -1.0956,1.0235 -1.0956,13.015 0,11.992 0,11.992 1.0235,13.088 1.0235,1.0956 1.0235,1.0956 5.9599,1.0956 4.9364,0 4.9364,0 6.0321,-1.0235 z m -21.167,0 c 1.0956,-1.0235 1.0956,-1.0235 1.0956,-13.015 0,-11.992 0,-11.992 -1.0235,-13.088 -1.0235,-1.096 -1.0235,-1.0956 -5.9599,-1.0956 -4.9364,0 -4.9364,0 -6.0321,1.0235 -1.0957,1.0235 -1.0956,1.0235 -1.0956,13.015 0,11.992 0,11.992 1.0235,13.088 1.0235,1.0956 1.0235,1.0956 5.9599,1.0956 4.9364,0 4.9364,0 6.0321,-1.0235 z m 85.762,61.525 v -66.499 h -7.0556 v 118.89 h -60.689 c -65.962,0 -61.989,-0.11575 -64.148,1.8689 -1.9795,1.8198 -2.6978,5.3408 -1.6171,7.9272 0.72837,1.7432 1.8032,2.86 3.5109,3.6482 1.3554,0.62554 3.9513,0.65158 65.705,0.65902 l 64.294,0.008 z m -131.53,80.069 c -3.6537,-0.79307 -7.305,-2.8184 -10.146,-5.6278 -2.8102,-2.7792 -4.0271,-4.6752 -5.3854,-8.391 l -0.93212,-2.55 -0.1898,-123.81 42.521,-42.525 h 98.604 v 28.222 h 21.167 v 155.22 l -71.702,-0.0281 c -59.427,-0.0232 -72.085,-0.11105 -73.936,-0.51293 z"
       style="fill:#f6d55c;fill-opacity:1;stroke-width:0.35278001"
       id="path2"
       inkscape:connector-curvature="0" />
  </g>
</svg>
